<svg xmlns="http://www.w3.org/2000/svg" viewBox="0 0 64 64" width="64" height="64">
  <rect x="1" y="1" width="62" height="62" rx="14" fill="#FFFFFF" />
  <path
    d="M30 56 C18 54, 6 42, 8 20 C9 13, 14 10, 18 15 C23 21, 25 32, 28 40 C29 44, 30 50, 30 56 Z"
    fill="#1E78D8"
  />
  <path
    d="M34 56 C46 54, 58 42, 56 20 C55 13, 50 10, 46 15 C41 21, 39 32, 36 40 C35 44, 34 50, 34 56 Z"
    fill="#1E78D8"
  />
  <path
    d="M32 38 C26 33, 19 28, 19 21 C19 15, 24 12, 28 16 C30 18, 31 19, 32 21 C33 19, 34 18, 36 16 C40 12, 45 15, 45 21 C45 28, 38 33, 32 38 Z"
    fill="#F25C97"
  />
</svg>
